<svg width="22" height="22" viewBox="0 0 22 22" fill="none" xmlns="http://www.w3.org/2000/svg">
<path id="Vector 2" d="M8.73957 18.352L6.07441 19.3249C4.61481 19.8578 3.13167 18.5954 3.4244 17.0694L4.00043 14.0666C4.09489 13.5742 4.00094 13.0642 3.73718 12.6378L1.99899 9.82747C1.20049 8.53646 2.07484 6.86143 3.59056 6.77842L6.30992 6.62948C6.892 6.5976 7.4312 6.31334 7.7864 5.85111L9.87298 3.13577C10.8143 1.91081 12.7299 2.17013 13.3116 3.60128L14.4743 6.46173C14.692 6.9973 15.1308 7.41246 15.6776 7.60021L18.5325 8.58044C20.0077 9.08695 20.3612 11.0121 19.1621 12.0096L16.9425 13.8561C16.4863 14.2356 16.2222 14.7981 16.2216 15.3915L16.2184 18.3715C16.2168 19.9079 14.5555 20.8688 13.223 20.1041L10.4208 18.4961C9.90911 18.2024 9.29381 18.1497 8.73957 18.352Z" fill="#0700FF" stroke="black" stroke-width="3"/>
</svg>
